# xmcd CD database file
#
# Track frame offsets:
#	150
#	22957
#	45602
#
# Disc length: 965 seconds
#
# Revision: 0
# Processed by: cddbd v1.5PL3 Copyright (c) Steve Scherf et al.
# Submitted via: CDex 1.51
#
DISCID=1903c303
DTITLE=OLIGINAL LOVE - 夜行性/アダルト・オンリー
DYEAR=2002
DGENRE=Pop
TTITLE0=夜行性
TTITLE1=アダルト・オンリー
TTITLE2=接吻 - TRIAL SESSION LIVE Version -
EXTD=YEAR: 2002
EXTT0=
EXTT1=
EXTT2=
PLAYORDER=
